<svg width="179" height="255" viewBox="0 0 179 255" fill="none" xmlns="http://www.w3.org/2000/svg">
<rect x="179" width="255" height="179" rx="89.5" transform="rotate(90 179 0)" fill="#393838"/>
<path d="M89.3 111C82.7 111 77.3 105.6 77.3 99C77.3 92.4 82.7 87 89.3 87C95.9 87 101.3 92.4 101.3 99C101.3 105.6 95.9 111 89.3 111ZM64 122.5C64 122.5 79 113.3 89.7 113.3C100.3 113.3 115.2 122.9 115.2 122.9C115.2 122.9 109.5 127.9 104.6 130.4C103.1 149.3 92.3 169.7 89.2 169.7C86.2 169.7 73.2 146.5 73.2 130.1C67.6 127.7 64 122.5 64 122.5Z" fill="white"/>
</svg>
